<svg width="65" height="10" viewBox="0 0 65 10" fill="none" xmlns="http://www.w3.org/2000/svg">
<path d="M0.396 4.776C0.396 3.944 0.576 3.204 0.936 2.556C1.296 1.9 1.796 1.392 2.436 1.032C3.084 0.664 3.816 0.48 4.632 0.48C5.632 0.48 6.488 0.743999 7.2 1.272C7.912 1.8 8.388 2.52 8.628 3.432H6.372C6.204 3.08 5.964 2.812 5.652 2.628C5.348 2.444 5 2.352 4.608 2.352C3.976 2.352 3.464 2.572 3.072 3.012C2.68 3.452 2.484 4.04 2.484 4.776C2.484 5.512 2.68 6.1 3.072 6.54C3.464 6.98 3.976 7.2 4.608 7.2C5 7.2 5.348 7.108 5.652 6.924C5.964 6.74 6.204 6.472 6.372 6.12H8.628C8.388 7.032 7.912 7.752 7.2 8.28C6.488 8.8 5.632 9.06 4.632 9.06C3.816 9.06 3.084 8.88 2.436 8.52C1.796 8.152 1.296 7.644 0.936 6.996C0.576 6.348 0.396 5.608 0.396 4.776ZM17.1806 0.576V9H15.1286V5.532H11.9366V9H9.88463V0.576H11.9366V3.876H15.1286V0.576H17.1806ZM20.714 0.576V9H18.662V0.576H20.714ZM29.737 9H27.685L24.253 3.804V9H22.201V0.576H24.253L27.685 5.796V0.576H29.737V9Z" fill="white"/>
<path d="M36.8154 9.084C36.1994 9.084 35.6474 8.984 35.1594 8.784C34.6714 8.584 34.2794 8.288 33.9834 7.896C33.6954 7.504 33.5434 7.032 33.5274 6.48H35.7114C35.7434 6.792 35.8514 7.032 36.0354 7.2C36.2194 7.36 36.4594 7.44 36.7554 7.44C37.0594 7.44 37.2994 7.372 37.4754 7.236C37.6514 7.092 37.7394 6.896 37.7394 6.648C37.7394 6.44 37.6674 6.268 37.5234 6.132C37.3874 5.996 37.2154 5.884 37.0074 5.796C36.8074 5.708 36.5194 5.608 36.1434 5.496C35.5994 5.328 35.1554 5.16 34.8114 4.992C34.4674 4.824 34.1714 4.576 33.9234 4.248C33.6754 3.92 33.5514 3.492 33.5514 2.964C33.5514 2.18 33.8354 1.568 34.4034 1.128C34.9714 0.68 35.7114 0.456 36.6234 0.456C37.5514 0.456 38.2994 0.68 38.8674 1.128C39.4354 1.568 39.7394 2.184 39.7794 2.976H37.5594C37.5434 2.704 37.4434 2.492 37.2594 2.34C37.0754 2.18 36.8394 2.1 36.5514 2.1C36.3034 2.1 36.1034 2.168 35.9514 2.304C35.7994 2.432 35.7234 2.62 35.7234 2.868C35.7234 3.14 35.8514 3.352 36.1074 3.504C36.3634 3.656 36.7634 3.82 37.3074 3.996C37.8514 4.18 38.2914 4.356 38.6274 4.524C38.9714 4.692 39.2674 4.936 39.5154 5.256C39.7634 5.576 39.8874 5.988 39.8874 6.492C39.8874 6.972 39.7634 7.408 39.5154 7.8C39.2754 8.192 38.9234 8.504 38.4594 8.736C37.9954 8.968 37.4474 9.084 36.8154 9.084ZM43.2023 2.22V3.924H45.9503V5.508H43.2023V7.356H46.3103V9H41.1503V0.576H46.3103V2.22H43.2023ZM49.6944 0.576V9H47.6424V0.576H49.6944ZM53.2335 7.416H55.9215V9H51.1815V0.576H53.2335V7.416ZM62.1443 7.512H59.0003L58.4963 9H56.3483L59.3963 0.576H61.7723L64.8203 9H62.6483L62.1443 7.512ZM61.6163 5.928L60.5723 2.844L59.5403 5.928H61.6163Z" fill="#32FFEB"/>
</svg>
